<svg viewBox="0 0 400 300" xmlns="http://www.w3.org/2000/svg"><circle cx="199.77" cy="151.68" fill="#e6e6e6" opacity=".3" r="115.65"/><path d="m172.55 64.61s36.86-8.89 45.42 9-39.49 52.57-66 11.77z" fill="#f4a28c"/><path d="m172.55 64.61s36.86-8.89 45.42 9-39.49 52.57-66 11.77z" opacity=".1"/><path d="m178.91 51.69h50.78v90.24h-50.78z" fill="#e6e6e6" transform="matrix(.43129859 .90220925 -.90220925 .43129859 203.51 -129.26)"/><path d="m186.67 61.32h42.52v67.51h-42.52z" fill="#fff" transform="matrix(.43129859 .90220925 -.90220925 .43129859 204.01 -133.53)"/><path d="m181.13 99.72h20.12v8.25h-20.12z" fill="#24285b" transform="matrix(.43129859 .90220925 -.90220925 .43129859 202.41 -113.44)"/><circle cx="220.09" cy="89.26" fill="#ffd200" r="13.91"/><path d="m191.68 72.69s20.74 7.06 22.32 13.62c1.32 5.42-8.48 10.11-21.76 3.28a21.09 21.09 0 0 0 -17.49-.9c-4.71 1.87-10.85 3-17.16.29-13.27-5.61-9.22-16.42 2.86-21s15.85-5.68 31.23 4.71z" fill="#f4a28c"/><path d="m162.03 93.47-74.36 29.17-12.19-46.51 81.93-12.86z" fill="#68e1fd"/><path d="m82.91 104.48 76.91-25.43 2.21 14.42-74.36 29.17z" opacity=".1"/><g fill="#a8a8a8"><circle cx="236.99" cy="68.84" r="1.55"/><rect height="1.41" rx=".7" transform="matrix(.43129859 .90220925 -.90220925 .43129859 210.34 -172.91)" width="16.35" x="234.16" y="79.7"/><circle cx="170.31" cy="111.73" r="4.94"/></g><path d="m221.78 182.88s-37.17-7.51-45.06 10.7 41.43 51.06 66.43 9.3z" fill="#f4a28c"/><path d="m221.78 182.88s-37.17-7.51-45.06 10.7 41.43 51.06 66.43 9.3z" opacity=".1"/><path d="m165.87 171.12h50.78v90.24h-50.78z" fill="#e6e6e6" transform="matrix(-.39746822 .91761594 -.91761594 -.39746822 465.7 126.68)"/><text fill="#fff" font-family="Panton-Black, Panton Black" font-size="18.45" font-weight="800" transform="matrix(.43 .9 -.9 .43 212.02 86.31)">$</text><path d="m166.3 180.89h42.52v67.51h-42.52z" fill="#fff" transform="matrix(-.39746822 .91761594 -.91761594 -.39746822 459.06 127.84)"/><path d="m196.16 217.48h19.94v10.35h-19.94z" fill="#24285b" transform="matrix(-.39746822 .91761594 -.91761594 -.39746822 492.36 122)"/><circle cx="178.52" cy="210.73" fill="#ffd200" r="13.91"/><text fill="#fff" font-family="Panton-Black, Panton Black" font-size="18.45" font-weight="800" transform="matrix(.49894158 -.86663562 .86663562 .49894158 180.67 219.05)">$</text><path d="m203 191.67s-20.45 7.82-21.8 14.44c-1.2 5.47 8.8 9.79 21.8 2.47a21.11 21.11 0 0 1 17.47-1.58c4.77 1.7 10.95 2.56 17.16-.34 13.05-6.1 8.6-16.76-3.65-20.92s-15.98-5.03-30.98 5.93z" fill="#f4a28c"/><path d="m233.37 211.33 75.39 26.38 10.45-46.93-82.35-9.8z" fill="#24285b"/><path d="m312.84 219.39-77.8-22.55-1.67 14.49 75.39 26.38z" opacity=".1"/><circle cx="225.77" cy="229.88" fill="#a8a8a8" r="4.94"/><path d="m237.1 117.74s20 21.78-5.69 34c-22.63 10.76-43.6-6.39-42.31 26.84" style="fill:none;stroke:#a8a8a8;stroke-linecap:round;stroke-linejoin:round;stroke-width:2;stroke-dasharray:1 10"/></svg>