<?xml version="1.0" encoding="UTF-8"?>
<svg version="1.1" xmlns="http://www.w3.org/2000/svg" width="500" height="452">
<path d="M0 0 C1.91507562 3.01212226 1.33785596 6.12408219 1.0546875 9.54296875 C1.00119141 10.31447266 0.94769531 11.08597656 0.89257812 11.88085938 C-1.31431375 40.84347124 -1.31431375 40.84347124 -3.8203125 45.85546875 C-9.13221347 45.24442655 -13.93550636 44.02242382 -19.0078125 42.35546875 C-36.20221222 36.7986452 -54.91386659 36.7304754 -71.5546875 44.5390625 C-76.70047358 47.19771864 -80.74750157 49.74661524 -84.8203125 53.85546875 C-85.4803125 53.85546875 -86.1403125 53.85546875 -86.8203125 53.85546875 C-87.09359375 54.45359375 -87.366875 55.05171875 -87.6484375 55.66796875 C-88.78191726 57.78379764 -89.91204386 59.14370757 -91.5703125 60.85546875 C-104.8383197 76.16221852 -106.14190498 96.59636461 -104.8203125 115.85546875 C-103.16591318 130.55231711 -94.75503161 145.1411424 -83.8203125 154.85546875 C-67.25517758 167.7969804 -49.07948038 169.28357871 -28.8203125 167.85546875 C-21.30667659 166.713425 -14.02067745 164.57037637 -6.98828125 161.69921875 C-4.47787563 160.72219602 -2.49089208 160.7028642 0.1796875 160.85546875 C1.61729495 164.842823 2.53220014 168.53212117 2.99609375 172.7421875 C3.12048828 173.84626953 3.24488281 174.95035156 3.37304688 176.08789062 C3.49486328 177.22806641 3.61667969 178.36824219 3.7421875 179.54296875 C3.86787109 180.66380859 3.99355469 181.78464844 4.12304688 182.93945312 C4.36988557 185.16617079 4.6078197 187.39389528 4.83642578 189.62255859 C5.06241739 191.75099453 5.31534274 193.87677025 5.59716797 195.99853516 C5.71592285 196.96839355 5.83467773 197.93825195 5.95703125 198.9375 C6.07167725 199.79190674 6.18632324 200.64631348 6.30444336 201.52661133 C6.14296718 204.54093869 5.25953804 205.70812696 3.1796875 207.85546875 C0.63804776 208.90359822 -1.68658624 209.70466168 -4.3203125 210.41796875 C-5.44602661 210.73157349 -5.44602661 210.73157349 -6.59448242 211.05151367 C-38.68254893 219.63640612 -71.96901261 217.32237574 -101.578125 201.765625 C-107.01974188 198.55966035 -111.94584128 194.86095346 -116.8203125 190.85546875 C-117.68398437 190.15679687 -118.54765625 189.458125 -119.4375 188.73828125 C-130.54855162 179.2886953 -137.99530064 167.5713428 -144.8203125 154.85546875 C-148.87704621 159.43967374 -151.5292911 164.61106872 -154.3828125 169.98046875 C-158.65669894 177.92086202 -163.02846039 185.78351628 -167.58837891 193.56298828 C-170.20032256 198.02838745 -172.75456354 202.51947112 -175.2578125 207.046875 C-176.13095093 208.61900757 -176.13095093 208.61900757 -177.02172852 210.22290039 C-178.15705931 212.27147716 -179.2854534 214.32391764 -180.40600586 216.38061523 C-180.92300049 217.31075439 -181.43999512 218.24089355 -181.97265625 219.19921875 C-182.42632568 220.02615234 -182.87999512 220.85308594 -183.34741211 221.70507812 C-184.98608763 224.09749549 -186.36689628 225.31674157 -188.8203125 226.85546875 C-191.14137268 227.22969055 -191.14137268 227.22969055 -193.72485352 227.2277832 C-194.69588516 227.23401199 -195.66691681 227.24024078 -196.66737366 227.24665833 C-197.70913254 227.23744858 -198.75089142 227.22823883 -199.82421875 227.21875 C-201.43646584 227.21949776 -201.43646584 227.21949776 -203.08128357 227.22026062 C-205.35165253 227.2179216 -207.62202416 227.20820323 -209.89233398 227.19165039 C-213.37311907 227.16803452 -216.85313941 227.17109389 -220.33398438 227.17773438 C-222.53906708 227.17215838 -224.74414655 227.16504899 -226.94921875 227.15625 C-228.51489342 227.15761711 -228.51489342 227.15761711 -230.11219788 227.15901184 C-231.08007736 227.14947983 -232.04795685 227.13994781 -233.04516602 227.13012695 C-233.8969191 227.12551956 -234.74867218 227.12091217 -235.62623596 227.11616516 C-237.8203125 226.85546875 -237.8203125 226.85546875 -240.8203125 224.85546875 C-239.31463721 220.77888498 -237.36789271 217.13391197 -235.19921875 213.37109375 C-234.67056969 212.45375458 -234.67056969 212.45375458 -234.13124084 211.5178833 C-230.44407831 205.1504831 -226.60570852 198.87666669 -222.7578125 192.60546875 C-216.49471389 182.35740839 -210.40046313 172.02627373 -204.43115234 161.60351562 C-200.15915317 154.15164144 -195.81722018 146.74544833 -191.42700195 139.36291504 C-190.39788449 137.63083599 -189.37177094 135.89697331 -188.34570312 134.16308594 C-185.59207694 129.50998035 -182.83455797 124.86214415 -180 120.2578125 C-179.25256716 119.01955359 -178.50516708 117.7812749 -177.7578125 116.54296875 C-177.14808594 115.55683594 -176.53835937 114.57070312 -175.91015625 113.5546875 C-174.50561424 110.07605479 -174.74798951 108.43892785 -175.8203125 104.85546875 C-177.0412281 102.37104747 -178.29061485 100.04179426 -179.6953125 97.66796875 C-180.0960498 96.97364746 -180.49678711 96.27932617 -180.90966797 95.56396484 C-181.76842712 94.07855254 -182.63133813 92.59553404 -183.49804688 91.11474609 C-184.78572557 88.91456541 -186.06261362 86.70851392 -187.3359375 84.5 C-189.13600458 81.38011145 -190.94111646 78.26322263 -192.75 75.1484375 C-196.83726008 68.10748292 -200.90185797 61.05346378 -204.96875 54.00073242 C-207.94631934 48.83726709 -210.92437994 43.67409419 -213.90698242 38.51353455 C-214.92877578 36.74556393 -215.95026931 34.97742041 -216.97167969 33.20922852 C-218.25039377 30.99583834 -219.52965597 28.78276469 -220.80957031 26.57006836 C-221.95720292 24.58294028 -223.10068592 22.59340769 -224.23925781 20.60107422 C-225.27186889 18.80787715 -226.32262995 17.0249768 -227.39355469 15.25439453 C-228.09593262 14.06885986 -228.09593262 14.06885986 -228.8125 12.859375 C-229.22612793 12.17818604 -229.63975586 11.49699707 -230.06591797 10.79516602 C-230.99982884 8.39389679 -230.52520892 7.27589881 -229.8203125 4.85546875 C-222.63049348 4.75410658 -215.44085848 4.68401915 -208.25048828 4.63574219 C-205.80412917 4.61561823 -203.35781821 4.58831615 -200.91162109 4.55371094 C-197.39668909 4.50522912 -193.88239266 4.48250747 -190.3671875 4.46484375 C-189.2722699 4.44419861 -188.17735229 4.42355347 -187.04925537 4.40228271 C-186.02849915 4.40198059 -185.00774292 4.40167847 -183.95605469 4.40136719 C-183.05892761 4.39248474 -182.16180054 4.38360229 -181.23748779 4.37445068 C-178.03542964 5.0116605 -176.88101917 6.38274134 -174.8203125 8.85546875 C-173.31567383 11.35058594 -173.31567383 11.35058594 -171.90234375 14.15234375 C-171.37447266 15.18625244 -170.84660156 16.22016113 -170.30273438 17.28540039 C-169.75166016 18.38102295 -169.20058594 19.47664551 -168.6328125 20.60546875 C-167.47465437 22.87081432 -166.31449513 25.13513793 -165.15234375 27.3984375 C-164.58596191 28.5023584 -164.01958008 29.6062793 -163.43603516 30.74365234 C-159.19512868 38.91146647 -154.70685521 46.96915665 -149.7578125 54.73046875 C-147.8203125 57.85546875 -147.8203125 57.85546875 -147.8203125 59.85546875 C-147.1603125 59.85546875 -146.5003125 59.85546875 -145.8203125 59.85546875 C-145.68302734 58.84033203 -145.68302734 58.84033203 -145.54296875 57.8046875 C-144.64093557 54.12341696 -143.04400884 50.98097978 -141.2578125 47.66796875 C-140.9057373 47.00958008 -140.55366211 46.35119141 -140.19091797 45.67285156 C-137.42076961 40.63867508 -134.22060552 36.18489563 -130.484375 31.80859375 C-128.66781018 29.75387714 -128.66781018 29.75387714 -126.8203125 26.85546875 C-126.1603125 26.85546875 -125.5003125 26.85546875 -124.8203125 26.85546875 C-124.8203125 26.19546875 -124.8203125 25.53546875 -124.8203125 24.85546875 C-124.1603125 24.85546875 -123.5003125 24.85546875 -122.8203125 24.85546875 C-122.8203125 24.19546875 -122.8203125 23.53546875 -122.8203125 22.85546875 C-122.1603125 22.85546875 -121.5003125 22.85546875 -120.8203125 22.85546875 C-120.8203125 22.19546875 -120.8203125 21.53546875 -120.8203125 20.85546875 C-93.75703313 -5.28581513 -34.7409737 -21.84357359 0 0 Z " fill="#5044EA" transform="translate(368.8203125,129.14453125)"/>
<path d="M0 0 C0.99 0.33 1.98 0.66 3 1 C1.71034824 2.37562854 0.37310707 3.70766393 -1 5 C-1.66 5 -2.32 5 -3 5 C-3.40992188 5.8971875 -3.40992188 5.8971875 -3.828125 6.8125 C-4.96160476 8.92832889 -6.09173136 10.28823882 -7.75 12 C-21.0180072 27.30674977 -22.32159248 47.74089586 -21 67 C-19.34560068 81.69684836 -10.93471911 96.28567365 0 106 C9.77319649 113.63530976 21.84402272 118.90522717 34.296875 119.31640625 C35.50214844 119.35830078 36.70742188 119.40019531 37.94921875 119.44335938 C39.20347656 119.48267578 40.45773437 119.52199219 41.75 119.5625 C43.01972656 119.60568359 44.28945313 119.64886719 45.59765625 119.69335938 C48.73166365 119.79939722 51.86574933 119.90146058 55 120 C49.99447132 124.53974061 44.16030246 123.47480864 37.75 123.4375 C36.54730469 123.45748047 35.34460938 123.47746094 34.10546875 123.49804688 C26.92314501 123.49410488 22.11406183 122.84030003 16 119 C16 118.34 16 117.68 16 117 C15.29875 116.896875 14.5975 116.79375 13.875 116.6875 C9.05006688 115.53371165 4.72293879 113.29336893 1 110 C1 109.34 1 108.68 1 108 C0.44183594 107.773125 -0.11632812 107.54625 -0.69140625 107.3125 C-8.88336402 102.6551433 -14.51376559 93.47192448 -18 85 C-18.45246094 84.00226563 -18.90492188 83.00453125 -19.37109375 81.9765625 C-22.81270399 73.92338952 -23.84994686 66.71308549 -24 58 C-24.05027344 56.99066406 -24.10054688 55.98132813 -24.15234375 54.94140625 C-24.60473527 41.31537379 -20.32196875 29.29736468 -15 17 C-14.34 17 -13.68 17 -13 17 C-12.9071875 15.9171875 -12.9071875 15.9171875 -12.8125 14.8125 C-11.41604752 9.97862603 -7.51323946 7.40470399 -3.75 4.3125 C-0.98257806 2.2957678 -0.98257806 2.2957678 0 0 Z " fill="#493899" transform="translate(285,178)"/>
<path d="M0 0 C1.00807205 -0.01283524 2.0161441 -0.02567047 3.05476379 -0.03889465 C4.70154366 -0.04997505 4.70154366 -0.04997505 6.3815918 -0.0612793 C7.50268845 -0.06935104 8.6237851 -0.07742279 9.77885437 -0.08573914 C12.15707849 -0.09959961 14.53532267 -0.11031293 16.91357422 -0.11816406 C20.55498899 -0.135376 24.19549606 -0.17924576 27.83666992 -0.22338867 C30.14330385 -0.23351502 32.44994552 -0.2420313 34.7565918 -0.2487793 C35.84837234 -0.26628738 36.94015289 -0.28379547 38.0650177 -0.30183411 C39.5913105 -0.29744576 39.5913105 -0.29744576 41.1484375 -0.29296875 C42.48960381 -0.30176811 42.48960381 -0.30176811 43.85786438 -0.31074524 C47.05093148 0.33536316 48.21053815 1.71032641 50.26831055 4.17700195 C51.77294922 6.67211914 51.77294922 6.67211914 53.1862793 9.47387695 C53.71415039 10.50778564 54.24202148 11.54169434 54.78588867 12.60693359 C55.33696289 13.70255615 55.88803711 14.79817871 56.45581055 15.92700195 C57.61396867 18.19234752 58.77412792 20.45667113 59.9362793 22.7199707 C60.50266113 23.8238916 61.06904297 24.9278125 61.65258789 26.06518555 C65.89349436 34.23299967 70.38176784 42.29068985 75.33081055 50.05200195 C77.26831055 53.17700195 77.26831055 53.17700195 77.26831055 55.17700195 C77.92831055 55.17700195 78.58831055 55.17700195 79.26831055 55.17700195 C79.35854492 54.5015332 79.4487793 53.82606445 79.54174805 53.13012695 C80.45435114 49.42083695 82.08625178 46.26171652 83.89331055 42.92700195 C84.24651367 42.26821045 84.5997168 41.60941895 84.96362305 40.93066406 C87.89526596 35.59154029 91.27293904 30.78416472 95.26831055 26.17700195 C95.26831055 30.14274585 93.41673739 32.46075236 91.33081055 35.67700195 C88.3903114 40.21487659 88.3903114 40.21487659 86.26831055 45.17700195 C85.60831055 45.17700195 84.94831055 45.17700195 84.26831055 45.17700195 C84.18581055 45.83700195 84.10331055 46.49700195 84.01831055 47.17700195 C83.02071264 51.16739358 81.19664372 54.56249838 79.26831055 58.17700195 C76.26831055 57.17700195 76.26831055 57.17700195 75.0222168 55.1809082 C74.22947308 53.55643336 73.4378019 51.93143467 72.6472168 50.3059082 C71.43902477 48.03042903 71.43902477 48.03042903 69.1550293 47.1809082 C68.53241211 46.84961914 67.90979492 46.51833008 67.26831055 46.17700195 C66.65893555 44.01293945 66.65893555 44.01293945 66.51831055 41.55200195 C66.4615918 40.73473633 66.40487305 39.9174707 66.34643555 39.07543945 C66.3206543 38.44895508 66.29487305 37.8224707 66.26831055 37.17700195 C64.78331055 36.68200195 64.78331055 36.68200195 63.26831055 36.17700195 C62.93831055 34.52700195 62.60831055 32.87700195 62.26831055 31.17700195 C61.60831055 31.17700195 60.94831055 31.17700195 60.26831055 31.17700195 C60.15874023 30.53891602 60.04916992 29.90083008 59.9362793 29.2434082 C59.77772461 28.41711914 59.61916992 27.59083008 59.45581055 26.73950195 C59.30499023 25.91579102 59.15416992 25.09208008 58.9987793 24.2434082 C58.63719727 23.22053711 58.63719727 23.22053711 58.26831055 22.17700195 C57.27831055 21.84700195 56.28831055 21.51700195 55.26831055 21.17700195 C54.95893555 20.22825195 54.64956055 19.27950195 54.33081055 18.30200195 C53.58946884 15.12048507 53.58946884 15.12048507 51.33081055 13.80200195 C48.19394883 11.33053514 47.32574007 7.95010274 46.26831055 4.17700195 C46.26831055 3.51700195 46.26831055 2.85700195 46.26831055 2.17700195 C29.76831055 2.17700195 13.26831055 2.17700195 -3.73168945 2.17700195 C-4.06168945 3.49700195 -4.39168945 4.81700195 -4.73168945 6.17700195 C-5.11387712 4.52085538 -5.44564047 2.85243171 -5.73168945 1.17700195 C-4.09973602 -0.45495148 -2.2525313 0.02486687 0 0 Z " fill="#4E40AE" transform="translate(143.731689453125,133.822998046875)"/>
<path d="M0 0 C3.12244025 2.08162683 4.19679336 3.85093062 5.95605469 7.08740234 C6.93875802 8.88779941 8.00229971 10.6433933 9.0703125 12.39453125 C13.09803085 19.09463306 16.26964281 25.07562448 17 33 C16.34 33 15.68 33 15 33 C14.896875 33.598125 14.79375 34.19625 14.6875 34.8125 C14 37 14 37 12.5625 38.375 C10.75705795 39.99736589 10.75705795 39.99736589 10.1875 42.875 C8.66484486 46.88198722 6.25514193 48.28738172 3 51 C1.13540007 54.90954623 1.13540007 54.90954623 1.5625 59.0625 C2 61 2 61 0.9375 63.5 C-1.34703671 66.4477893 -3.8628699 68.02224407 -7 70 C-7.495 70.99 -7.495 70.99 -8 72 C-8.66 72 -9.32 72 -10 72 C-10.268125 72.53625 -10.53625 73.0725 -10.8125 73.625 C-12.20833333 76.41666667 -13.60416667 79.20833333 -15 82 C-15.66 81.67 -16.32 81.34 -17 81 C-11.8000839 71.47448997 -6.48534676 62.04071279 -0.875 52.75 C-0.37234619 51.91355957 0.13030762 51.07711914 0.64819336 50.21533203 C2.93657012 46.4092115 5.23805059 42.61291019 7.57421875 38.8359375 C8.32100571 37.59937672 9.06714779 36.36242613 9.8125 35.125 C10.45832031 34.07570312 11.10414063 33.02640625 11.76953125 31.9453125 C13.30201779 28.27707488 13.17916026 26.78373111 12 23 C10.69064151 20.21972246 9.18613668 17.58303383 7.625 14.9375 C7.22539062 14.24333984 6.82578125 13.54917969 6.4140625 12.83398438 C4.72181492 9.90316744 3.00090092 7.0014458 1.2109375 4.12890625 C0 2 0 2 0 0 Z " fill="#5043C8" transform="translate(181,211)"/>
<path d="M0 0 C-0.33 0.66 -0.66 1.32 -1 2 C-1.52464844 1.74605469 -2.04929687 1.49210938 -2.58984375 1.23046875 C-15.74431716 -4.61353191 -29.06286834 -5.26726264 -43.25 -5.3125 C-44.50458008 -5.31797852 -45.75916016 -5.32345703 -47.05175781 -5.32910156 C-55.19718965 -5.26698809 -62.98938993 -4.46939687 -71 -3 C-71.33 -2.01 -71.66 -1.02 -72 0 C-73.8253125 0.185625 -73.8253125 0.185625 -75.6875 0.375 C-79.08652636 0.7998783 -81.86975934 1.56178132 -85 3 C-85.845625 3.33 -86.69125 3.66 -87.5625 4 C-89.96738872 4.94567449 -89.96738872 4.94567449 -92.0625 6.0625 C-94.05597866 7.02708645 -95.81607803 7.63601301 -98 8 C-98.66 7.67 -99.32 7.34 -100 7 C-100 7.66 -100 8.32 -100 9 C-100.804375 9.350625 -101.60875 9.70125 -102.4375 10.0625 C-106.37879503 11.99561137 -109.59362553 14.77499332 -112.94921875 17.57421875 C-115 19 -115 19 -118 19 C-102.87114806 3.57697594 -81.96868635 -3.94586525 -61 -7 C-60.1440625 -7.13148437 -59.288125 -7.26296875 -58.40625 -7.3984375 C-39.54278417 -9.78867118 -17.25222676 -8.62611338 0 0 Z " fill="#4D40B0" transform="translate(369,129)"/>
<path d="M0 0 C0.495 0.99 0.495 0.99 1 2 C-0.04467773 4.29980469 -0.04467773 4.29980469 -1.68359375 7.171875 C-2.2780127 8.22294434 -2.87243164 9.27401367 -3.48486328 10.35693359 C-4.1292334 11.47664551 -4.77360352 12.59635742 -5.4375 13.75 C-6.08187012 14.88131348 -6.72624023 16.01262695 -7.39013672 17.17822266 C-8.67334766 19.43005297 -9.95943039 21.68024947 -11.24853516 23.92871094 C-12.71257119 26.49597792 -14.15338782 29.07275703 -15.57421875 31.6640625 C-15.93008057 32.30762695 -16.28594238 32.95119141 -16.65258789 33.61425781 C-17.55537356 35.24892772 -18.45365762 36.88608155 -19.3515625 38.5234375 C-21.07715727 41.11591875 -22.3709969 42.36726144 -25 44 C-27.32106018 44.3742218 -27.32106018 44.3742218 -29.90454102 44.37231445 C-30.87557266 44.37854324 -31.84660431 44.38477203 -32.84706116 44.39118958 C-33.88882004 44.38197983 -34.93057892 44.37277008 -36.00390625 44.36328125 C-37.61615334 44.36402901 -37.61615334 44.36402901 -39.26097107 44.36479187 C-41.53134003 44.36245285 -43.80171166 44.35273448 -46.07202148 44.33618164 C-49.55280657 44.31256577 -53.03282691 44.31562514 -56.51367188 44.32226562 C-58.71875458 44.31668963 -60.92383405 44.30958024 -63.12890625 44.30078125 C-64.69458092 44.30214836 -64.69458092 44.30214836 -66.29188538 44.30354309 C-67.25976486 44.29401108 -68.22764435 44.28447906 -69.22485352 44.2746582 C-70.50248314 44.26774712 -70.50248314 44.26774712 -71.80592346 44.26069641 C-74 44 -74 44 -77 42 C-75.42927569 37.71916586 -73.32538181 33.81947287 -71.0625 29.875 C-70.71509766 29.25496094 -70.36769531 28.63492187 -70.00976562 27.99609375 C-68.28381951 24.97325027 -66.6566936 22.28192491 -64 20 C-64.4979837 23.73487777 -64.87491756 25.81237635 -67 29 C-67.66 29 -68.32 29 -69 29 C-69.99 32.465 -69.99 32.465 -71 36 C-71.66 36 -72.32 36 -73 36 C-73.59070014 37.94603274 -73.59070014 37.94603274 -74 40 C-72.41792268 41.58207732 -70.8137897 41.12727519 -68.61962891 41.12939453 C-67.2228038 41.13412277 -67.2228038 41.13412277 -65.79776001 41.13894653 C-64.27751724 41.13591019 -64.27751724 41.13591019 -62.7265625 41.1328125 C-61.69187836 41.13376923 -60.65719421 41.13472595 -59.59115601 41.13571167 C-57.39703308 41.13639375 -55.20290814 41.13453755 -53.00878906 41.13037109 C-49.64643821 41.12503403 -46.28422161 41.13030958 -42.921875 41.13671875 C-40.79427054 41.13605776 -38.66666616 41.13477617 -36.5390625 41.1328125 C-35.02489243 41.13584885 -35.02489243 41.13584885 -33.48013306 41.13894653 C-32.542612 41.13579437 -31.60509094 41.13264221 -30.63916016 41.12939453 C-29.81388824 41.12859894 -28.98861633 41.12780334 -28.13833618 41.12698364 C-25.81257685 41.08165551 -25.81257685 41.08165551 -23 40 C-21.30718907 37.22286692 -21.30718907 37.22286692 -19.8125 33.9375 C-19.28269531 32.83277344 -18.75289062 31.72804688 -18.20703125 30.58984375 C-17.80871094 29.73519531 -17.41039062 28.88054687 -17 28 C-16.34 28 -15.68 28 -15 28 C-14.731875 27.113125 -14.46375 26.22625 -14.1875 25.3125 C-13.07868507 22.21948994 -11.69177578 19.79510781 -10 17 C-9.30420546 14.80869466 -9.30420546 14.80869466 -9 13 C-8.34 13 -7.68 13 -7 13 C-6.773125 12.34 -6.54625 11.68 -6.3125 11 C-4.59428642 7.07265467 -2.33225393 3.58739822 0 0 Z " fill="#453498" transform="translate(205,312)"/>
<path d="M0 0 C1.32 0.33 2.64 0.66 4 1 C4 1.99 4 2.98 4 4 C4.66 4 5.32 4 6 4 C7.25664978 6.90600261 8 8.79604584 8 12 C8.66 12 9.32 12 10 12 C11.05516543 13.63230012 12.04531771 15.30696737 13 17 C18.08750909 24.7156536 23.45807178 30.860574 30.64453125 36.66796875 C31.09183594 37.10753906 31.53914063 37.54710937 32 38 C32 38.66 32 39.32 32 40 C32.886875 40.04125 33.77375 40.0825 34.6875 40.125 C38 41 38 41 40.171875 43.78515625 C43.27680197 47.70975586 47.04965469 49.34854071 51.5625 51.3125 C52.31724609 51.65861328 53.07199219 52.00472656 53.84960938 52.36132812 C57.21265378 53.88136494 60.3915084 55.18187435 64 56 C64 56.66 64 57.32 64 58 C58.96161428 57.43844617 54.84958497 55.77410252 50.375 53.5 C49.6742334 53.14542725 48.9734668 52.79085449 48.25146484 52.42553711 C41.5884254 48.95124882 35.78979719 44.80553167 30 40 C29.13890625 39.30261719 28.2778125 38.60523438 27.390625 37.88671875 C16.27245896 28.44318331 8.82529802 16.71640721 2 4 C0.68 5.32 -0.64 6.64 -2 8 C-2.20086443 4.28400809 -2.1519437 3.22791555 0 0 Z " fill="#3F3592" transform="translate(222,280)"/>
<path d="M0 0 C0.66 0 1.32 0 2 0 C2.32613281 0.60328125 2.65226563 1.2065625 2.98828125 1.828125 C3.42527344 2.62734375 3.86226562 3.4265625 4.3125 4.25 C4.74175781 5.03890625 5.17101562 5.8278125 5.61328125 6.640625 C6.94380201 9.0099556 6.94380201 9.0099556 8.5703125 11.0703125 C10.59771228 13.80674826 11.6698192 16.87696682 13 20 C13.66 20.66 14.32 21.32 15 22 C16.47698559 24.87029957 17.87947153 27.76333906 19.2578125 30.68164062 C20.62796211 33.50907656 21.99956235 35.9994577 23.9765625 38.44921875 C26.11052776 41.13933325 27.44695427 43.77183846 28.92431641 46.85009766 C31.18025593 51.35890461 33.91387564 55.61581059 36.55273438 59.90820312 C38.76134852 63.58039665 40.5617949 66.64372581 41 71 C38.36038088 68.62180188 36.80273218 66.11948448 35.1015625 63.01171875 C34.54637939 62.00641113 33.99119629 61.00110352 33.41918945 59.96533203 C32.82710693 58.88364746 32.23502441 57.80196289 31.625 56.6875 C26.96443191 48.26484509 22.23473507 39.89765773 17.3125 31.625 C16.78519287 30.7373999 16.25788574 29.8497998 15.71459961 28.93530273 C14.66709123 27.1725332 13.61932456 25.40991713 12.57128906 23.64746094 C9.9265737 19.19138677 7.30042114 14.72478214 4.6875 10.25 C4.2128833 9.4451416 3.7382666 8.6402832 3.24926758 7.81103516 C2.82025146 7.0741748 2.39123535 6.33731445 1.94921875 5.578125 C1.57112061 4.93262695 1.19302246 4.28712891 0.8034668 3.62207031 C0 2 0 2 0 0 Z " fill="#3A3092" transform="translate(140,140)"/>
<path d="M0 0 C0.33 0 0.66 0 1 0 C1.20522157 7.97786463 0.61223791 15.65772943 -0.4375 23.5625 C-0.57220703 24.64080078 -0.70691406 25.71910156 -0.84570312 26.83007812 C-1.86140242 34.72280484 -1.86140242 34.72280484 -3 37 C-8.31190097 36.3889578 -13.11519386 35.16695507 -18.1875 33.5 C-24.26682356 31.53530633 -29.43235847 29.86955285 -35.859375 29.90234375 C-36.97441406 29.90556641 -38.08945312 29.90878906 -39.23828125 29.91210938 C-40.97658203 29.92467773 -40.97658203 29.92467773 -42.75 29.9375 C-43.92433594 29.94201172 -45.09867187 29.94652344 -46.30859375 29.95117188 C-49.20578072 29.96294906 -52.10286454 29.97939674 -55 30 C-55 29.34 -55 28.68 -55 28 C-50.56255704 27.94121394 -46.12521627 27.90614187 -41.6875 27.875 C-40.44419922 27.85824219 -39.20089844 27.84148437 -37.91992188 27.82421875 C-30.37694091 27.78462305 -23.3591116 28.31351712 -16 30 C-16 30.66 -16 31.32 -16 32 C-15.13375 32.103125 -14.2675 32.20625 -13.375 32.3125 C-9.83316877 33.03398414 -7.15687958 34.27123261 -4 36 C-4 32.37 -4 28.74 -4 25 C-3.67 25 -3.34 25 -3 25 C-1.515 12.625 -1.515 12.625 0 0 Z " fill="#44369B" transform="translate(368,138)"/>
<path d="M0 0 C1.65 0.33 3.3 0.66 5 1 C5 3.31 5 5.62 5 8 C4.34 8 3.68 8 3 8 C3.04125 9.134375 3.0825 10.26875 3.125 11.4375 C3.14931968 19.00092134 1.96286978 26.51196806 1 34 C0.67 34 0.34 34 0 34 C-0.33 37.3 -0.66 40.6 -1 44 C-3.90130187 43.27467453 -6.48132518 42.49882535 -9.25 41.4375 C-9.95640625 41.16808594 -10.6628125 40.89867187 -11.390625 40.62109375 C-11.92171875 40.41613281 -12.4528125 40.21117187 -13 40 C-9.90279155 39.12159004 -8.09354597 39.00564594 -5 40 C-5.020625 38.72125 -5.04125 37.4425 -5.0625 36.125 C-5.125 32.25 -5.125 32.25 -4 30 C-3.01 30 -2.02 30 -1 30 C-1.02320313 29.41992188 -1.04640625 28.83984375 -1.0703125 28.2421875 C-1.09738281 27.07042969 -1.09738281 27.07042969 -1.125 25.875 C-1.14820313 25.10929687 -1.17140625 24.34359375 -1.1953125 23.5546875 C-0.95968843 20.47272468 0.02366121 17.92901636 1 15 C1.32307403 12.75932529 1.57318973 10.50693113 1.75 8.25 C1.84796875 7.12078125 1.9459375 5.9915625 2.046875 4.828125 C2.32553124 1.86200372 2.32553124 1.86200372 0 0 Z " fill="#5645DD" transform="translate(365,130)"/>
<path d="M0 0 C0.33 1.32 0.66 2.64 1 4 C1.66 4 2.32 4 3 4 C7.40774487 13.41002278 7.40774487 13.41002278 8 18 C7.34 17.67 6.68 17.34 6 17 C6 16.01 6 15.02 6 14 C5.34 14 4.68 14 4 14 C2.74335022 11.09399739 2 9.20395416 2 6 C1.34 6 0.68 6 0 6 C-0.33 5.01 -0.66 4.02 -1 3 C-1.99 2.67 -2.98 2.34 -4 2 C-4.14477783 2.66427002 -4.28955566 3.32854004 -4.4387207 4.01293945 C-6.25538913 11.52091513 -9.2204119 17.59437714 -13.1875 24.1875 C-14.02571289 25.61545898 -14.02571289 25.61545898 -14.88085938 27.07226562 C-16.24266227 29.38849449 -17.61563343 31.69721187 -19 34 C-20 31 -20 31 -18.890625 28.6171875 C-18.07851562 27.25980469 -18.07851562 27.25980469 -17.25 25.875 C-14.78580574 21.57977251 -12.98299981 17.53589035 -11.640625 12.77734375 C-11 11 -11 11 -9 9 C-8.87625 8.030625 -8.7525 7.06125 -8.625 6.0625 C-8 3 -8 3 -6.1875 1.125 C-4 0 -4 0 0 0 Z " fill="#5444D4" transform="translate(226,278)"/>
<path d="M0 0 C1.88989379 4.87070187 2.4014447 9.22391338 2.625 14.375 C2.66367187 15.11105469 2.70234375 15.84710938 2.7421875 16.60546875 C2.83557998 18.40327406 2.9188371 20.20160108 3 22 C0.81005752 18.71508627 0.64722661 17.16904361 0.375 13.3125 C0.30023438 12.31863281 0.22546875 11.32476562 0.1484375 10.30078125 C0.09945313 9.54152344 0.05046875 8.78226562 0 8 C-0.78375 8.04125 -1.5675 8.0825 -2.375 8.125 C-5 8 -5 8 -7 6 C-11.42098732 4.25839894 -14.4308487 5.74293073 -18.640625 7.296875 C-22.19240754 8.35535324 -25.31661072 8.20091214 -29 8 C-29 7.67 -29 7.34 -29 7 C-28.17592651 6.78851318 -28.17592651 6.78851318 -27.33520508 6.57275391 C-24.82674079 5.92692683 -22.31962371 5.27601097 -19.8125 4.625 C-18.94818359 4.40328125 -18.08386719 4.1815625 -17.19335938 3.953125 C-1.65692572 -0.09468147 -1.65692572 -0.09468147 0 0 Z " fill="#503EB3" transform="translate(369,290)"/>
<path d="M0 0 C1.52179115 -0.00472824 1.52179115 -0.00472824 3.07432556 -0.009552 C4.73051659 -0.00651566 4.73051659 -0.00651566 6.42016602 -0.00341797 C8.10892601 -0.00485306 8.10892601 -0.00485306 9.83180237 -0.00631714 C12.21843522 -0.0069992 14.60506991 -0.00514311 16.99169922 -0.00097656 C20.65474603 0.00436634 24.31766995 -0.00091814 27.98071289 -0.00732422 C30.2938642 -0.00666334 32.60701544 -0.00538199 34.92016602 -0.00341797 C36.02226913 -0.0054422 37.12437225 -0.00746643 38.25987244 -0.009552 C39.78639183 -0.00482376 39.78639183 -0.00482376 41.34375 0 C42.24230209 0.00079559 43.14085419 0.00159119 44.06663513 0.00241089 C46.23657227 0.12939453 46.23657227 0.12939453 48.23657227 1.12939453 C47.90657227 1.78939453 47.57657227 2.44939453 47.23657227 3.12939453 C30.40657227 2.79939453 13.57657227 2.46939453 -3.76342773 2.12939453 C-4.09342773 3.44939453 -4.42342773 4.76939453 -4.76342773 6.12939453 C-5.14561541 4.47324796 -5.47737875 2.80482429 -5.76342773 1.12939453 C-4.12483871 -0.50919449 -2.25846931 0.00200146 0 0 Z " fill="#3F3297" transform="translate(143.763427734375,133.87060546875)"/>
<path d="M0 0 C0.74056641 0.00902344 1.48113281 0.01804687 2.24414062 0.02734375 C4.05873467 0.05075787 5.87316071 0.08662385 7.6875 0.125 C7.6875 0.455 7.6875 0.785 7.6875 1.125 C-12.85322342 5.12464371 -31.61569574 6.36248893 -52.3125 3.125 C-52.3125 2.795 -52.3125 2.465 -52.3125 2.125 C-50.57963745 2.14071045 -50.57963745 2.14071045 -48.81176758 2.15673828 C-44.51606356 2.19300279 -40.22037302 2.21592398 -35.92456055 2.23486328 C-34.06711551 2.24490615 -32.20968621 2.25854304 -30.35229492 2.27587891 C-27.67883409 2.30020261 -25.00558274 2.31150033 -22.33203125 2.3203125 C-21.50476028 2.33063507 -20.67748932 2.34095764 -19.82514954 2.35159302 C-12.86641618 2.35293996 -7.02353582 -0.16319207 0 0 Z " fill="#483EA4" transform="translate(352.3125,339.875)"/>
<path d="M0 0 C1.24354248 0.23771118 1.24354248 0.23771118 2.51220703 0.48022461 C6.28500721 1.04247377 9.9990731 1.22434612 13.8046875 1.31640625 C14.5286673 1.33718735 15.25264709 1.35796844 15.99856567 1.37937927 C18.29062239 1.44428853 20.58278474 1.50348437 22.875 1.5625 C24.43751053 1.60574112 26.00001072 1.64935711 27.5625 1.69335938 C31.37489426 1.79990896 35.1873938 1.90133795 39 2 C33.99447132 6.53974061 28.16030246 5.47480864 21.75 5.4375 C20.54730469 5.45748047 19.34460938 5.47746094 18.10546875 5.49804688 C10.92314501 5.49410488 6.11406183 4.84030003 0 1 C0 0.67 0 0.34 0 0 Z " fill="#4C3EB9" transform="translate(301,296)"/>
<path d="M0 0 C0.99 0.33 1.98 0.66 3 1 C2.67515625 2.52367187 2.67515625 2.52367187 2.34375 4.078125 C0.61240791 12.50042569 -0.46770887 20.36864533 0 29 C0.03673828 29.68255859 0.07347656 30.36511719 0.11132812 31.06835938 C0.36790673 35.71528307 0.67009326 40.3577408 1 45 C0.34 44.67 -0.32 44.34 -1 44 C-1.50244141 41.50317383 -1.50244141 41.50317383 -1.8515625 38.20703125 C-1.98046875 37.01916016 -2.109375 35.83128906 -2.2421875 34.60742188 C-2.36851562 33.35509766 -2.49484375 32.10277344 -2.625 30.8125 C-2.82609375 28.96301758 -2.82609375 28.96301758 -3.03125 27.07617188 C-4.64038901 11.86324027 -4.64038901 11.86324027 -1 4 C-0.62691369 2.67723944 -0.26953585 1.34767923 0 0 Z " fill="#5544D8" transform="translate(262,207)"/>
<path d="M0 0 C3.63111035 2.42074023 4.9778145 5.27680518 7 9 C7.69632077 10.18164503 8.39807699 11.3601054 9.10546875 12.53515625 C9.79947917 13.7109375 10.49348958 14.88671875 11.1875 16.0625 C11.54263672 16.64837891 11.89777344 17.23425781 12.26367188 17.83789062 C14.44518897 21.56758114 15.95486106 24.64973434 16 29 C14.87833603 31.60272415 13.78731905 33.74790864 12.3125 36.125 C11.95994141 36.73214844 11.60738281 37.33929688 11.24414062 37.96484375 C9.18024037 41.42857398 6.9849649 44.29129596 4 47 C5.66353857 41.32539127 8.43586196 36.92636876 11.63671875 32 C13.32748784 28.27933908 13.21591979 26.88028587 12 23 C10.69032777 20.21986267 9.18614446 17.58304701 7.625 14.9375 C7.22539062 14.24333984 6.82578125 13.54917969 6.4140625 12.83398438 C4.72181492 9.90316744 3.00090092 7.0014458 1.2109375 4.12890625 C0 2 0 2 0 0 Z " fill="#403291" transform="translate(181,211)"/>
<path d="M0 0 C0.33 0.66 0.66 1.32 1 2 C0.67 2.66 0.34 3.32 0 4 C-0.66 4 -1.32 4 -2 4 C-2.1546875 5.6396875 -2.1546875 5.6396875 -2.3125 7.3125 C-3.01114012 11.05975155 -3.31397238 11.65962741 -6 14 C0.31712993 14.02538248 6.63424668 14.04288057 12.95141602 14.05493164 C15.09985852 14.05995629 17.2482976 14.06677708 19.39672852 14.07543945 C22.4871505 14.08758678 25.57752722 14.09324705 28.66796875 14.09765625 C30.10573921 14.10539818 30.10573921 14.10539818 31.57255554 14.11329651 C32.92338982 14.11340981 32.92338982 14.11340981 34.30151367 14.11352539 C35.08983078 14.115746 35.87814789 14.11796661 36.69035339 14.12025452 C39.20419855 13.98936816 41.54610177 13.54820896 44 13 C43.67 13.66 43.34 14.32 43 15 C40.14283322 15.95238893 38.3421888 16.13151635 35.37670898 16.14526367 C34.44241562 16.15164352 33.50812225 16.15802338 32.54551697 16.16459656 C31.53920731 16.16570938 30.53289764 16.1668222 29.49609375 16.16796875 C28.46186783 16.17129715 27.42764191 16.17462555 26.36207581 16.17805481 C24.17571457 16.1831181 21.98934561 16.18546332 19.80297852 16.18530273 C16.44730026 16.1874936 13.09194839 16.20566775 9.73632812 16.22460938 C7.61458446 16.22754246 5.49283923 16.22952782 3.37109375 16.23046875 C2.36275986 16.23765427 1.35442596 16.24483978 0.3155365 16.25224304 C-0.61560471 16.24916641 -1.54674591 16.24608978 -2.50610352 16.24291992 C-3.32756363 16.24434494 -4.14902374 16.24576996 -4.99537659 16.24723816 C-7 16 -7 16 -9 14 C-8.34 12.68 -7.68 11.36 -7 10 C-6.34 10 -5.68 10 -5 10 C-4.34 7.69 -3.68 5.38 -3 3 C-2.34 3 -1.68 3 -1 3 C-0.67 2.01 -0.34 1.02 0 0 Z " fill="#5242CE" transform="translate(139,338)"/>
<path d="M0 0 C0.99 0.33 1.98 0.66 3 1 C1.71034824 2.37562854 0.37310707 3.70766393 -1 5 C-1.66 5 -2.32 5 -3 5 C-3.40992188 5.8971875 -3.40992188 5.8971875 -3.828125 6.8125 C-4.96160476 8.92832889 -6.09173136 10.28823882 -7.75 12 C-16.11840458 21.67151381 -18.96094174 33.89755559 -22 46 C-22.33 46 -22.66 46 -23 46 C-23.3546275 40.15635551 -22.19101632 35.81390808 -20.125 30.375 C-19.85558594 29.63765625 -19.58617187 28.9003125 -19.30859375 28.140625 C-17.93495388 24.40164428 -16.50204577 20.68949107 -15 17 C-14.34 17 -13.68 17 -13 17 C-12.9071875 15.9171875 -12.9071875 15.9171875 -12.8125 14.8125 C-11.41604752 9.97862603 -7.51323946 7.40470399 -3.75 4.3125 C-0.98257806 2.2957678 -0.98257806 2.2957678 0 0 Z " fill="#3E2D8A" transform="translate(285,178)"/>
<path d="M0 0 C0.33 0 0.66 0 1 0 C3.69390644 14.80535358 3.69390644 14.80535358 2 20 C-1.84683978 23.48619855 -7.02723688 24.07911794 -12 25 C-11.67 24.34 -11.34 23.68 -11 23 C-8.67843403 22.59270772 -6.3431213 22.25561323 -4 22 C-4 20.35 -4 18.7 -4 17 C-3.01 16.67 -2.02 16.34 -1 16 C-0.67 10.72 -0.34 5.44 0 0 Z " fill="#4D3FB0" transform="translate(372,315)"/>
<path d="M0 0 C-10.40836796 7.17020904 -23.87005974 5.12009842 -36 5 C-36 4.67 -36 4.34 -36 4 C-34.89140625 3.95101563 -33.7828125 3.90203125 -32.640625 3.8515625 C-31.17705935 3.77650785 -29.71351888 3.70096119 -28.25 3.625 C-27.15558594 3.57859375 -27.15558594 3.57859375 -26.0390625 3.53125 C-22.16258156 3.31980559 -19.37435512 2.87858006 -16 1 C-14.01410068 0.5386022 -12.01119048 0.14686042 -10 -0.1875 C-8.453125 -0.45626953 -8.453125 -0.45626953 -6.875 -0.73046875 C-4.20914487 -0.98039267 -2.50755482 -0.84991642 0 0 Z " fill="#5242E2" transform="translate(356,297)"/>
<path d="M0 0 C1.32 0 2.64 0 4 0 C4.45375 1.216875 4.9075 2.43375 5.375 3.6875 C6.54452941 6.8080927 7.74562438 9.91230616 9 13 C9.66 13 10.32 13 11 13 C15.22315022 17.09517597 15.6186908 20.37568927 16 26 C12.14289905 22.857177 10.46326892 19.12963743 8.3671875 14.7421875 C6.5234229 11.0441225 4.39507897 7.55074718 2.234375 4.03125 C1 2 1 2 0 0 Z " fill="#5345D3" transform="translate(168,187)"/>
<path d="M0 0 C0.66 0 1.32 0 2 0 C2 0.66 2 1.32 2 2 C2.66 2 3.32 2 4 2 C3.67 3.32 3.34 4.64 3 6 C2.01 6 1.02 6 0 6 C0.433125 6.433125 0.86625 6.86625 1.3125 7.3125 C1.869375 7.869375 2.42625 8.42625 3 9 C3.8353125 9.7734375 3.8353125 9.7734375 4.6875 10.5625 C6 12 6 12 6 14 C5.34 14 4.68 14 4 14 C4 13.34 4 12.68 4 12 C3.195625 11.690625 3.195625 11.690625 2.375 11.375 C-0.91978009 9.46749574 -3.59363628 6.95180616 -6 4 C-6 3.34 -6 2.68 -6 2 C-4.7934375 1.7834375 -4.7934375 1.7834375 -3.5625 1.5625 C-1.07896294 1.25864751 -1.07896294 1.25864751 0 0 Z " fill="#5146DE" transform="translate(250,306)"/>
<path d="M0 0 C1.98 0 3.96 0 6 0 C6 0.66 6 1.32 6 2 C6.70125 1.773125 7.4025 1.54625 8.125 1.3125 C11.93980063 0.89784776 13.80398096 1.9661697 17 4 C17.33 4.99 17.66 5.98 18 7 C13.03083364 6.48594831 8.70973649 5.76615118 4 4 C4 3.01 4 2.02 4 1 C2.68 0.67 1.36 0.34 0 0 Z " fill="#4C3DB9" transform="translate(282,335)"/>
<path d="M0 0 C1.65 0.33 3.3 0.66 5 1 C5 3.31 5 5.62 5 8 C4.34 8 3.68 8 3 8 C3.061875 9.794375 3.061875 9.794375 3.125 11.625 C3.14592234 18.16323279 2.02622968 24.55857623 1 31 C0.67 31 0.34 31 0 31 C-0.22511584 29.46069439 -0.42924045 27.91831367 -0.625 26.375 C-0.74101562 25.51648438 -0.85703125 24.65796875 -0.9765625 23.7734375 C-1.00444986 20.47343345 -0.07819041 18.10865119 1 15 C1.32307403 12.75932529 1.57318973 10.50693113 1.75 8.25 C1.84796875 7.12078125 1.9459375 5.9915625 2.046875 4.828125 C2.32553124 1.86200372 2.32553124 1.86200372 0 0 Z " fill="#5243C4" transform="translate(365,130)"/>
<path d="M0 0 C0.66 0.33 1.32 0.66 2 1 C-4.89916744 15.34782609 -4.89916744 15.34782609 -9 21 C-9.66 21 -10.32 21 -11 21 C-9.8486246 14.82444104 -8.62604391 12.39474172 -4 8 C-2.66436389 4.83298577 -2.66436389 4.83298577 -2 2 C-1.34 2 -0.68 2 0 2 C0 1.34 0 0.68 0 0 Z " fill="#5845D7" transform="translate(207,304)"/>
<path d="M0 0 C0 0.33 0 0.66 0 1 C-0.81082031 1.23074219 -1.62164062 1.46148437 -2.45703125 1.69921875 C-9.95963464 3.90894943 -16.97452735 6.56469874 -24 10 C-24 9.01 -24 8.02 -24 7 C-22.88625 6.566875 -21.7725 6.13375 -20.625 5.6875 C-16.82487666 4.30088881 -16.82487666 4.30088881 -15 1 C-9.95942862 0.06023246 -5.11463289 -0.10655485 0 0 Z " fill="#4F3E9F" transform="translate(312,168)"/>
<path d="M0 0 C6.18777027 -0.45001966 11.62906102 0.40688718 17.625 1.8125 C18.34099365 1.97782227 19.0569873 2.14314453 19.79467773 2.31347656 C24.44297767 3.45078667 28.64909705 5.00726361 33 7 C32.67 7.66 32.34 8.32 32 9 C31.41299316 8.73735352 30.82598633 8.47470703 30.22119141 8.20410156 C23.68643631 5.41829287 17.3694572 3.88928408 10.375 2.75 C9.37082031 2.57726562 8.36664063 2.40453125 7.33203125 2.2265625 C4.88951024 1.80784461 2.44577621 1.39917943 0 1 C0 0.67 0 0.34 0 0 Z " fill="#3F3492" transform="translate(336,122)"/>
<path d="M0 0 C0 3.96574389 -1.85157316 6.2837504 -3.9375 9.5 C-6.87799915 14.03787463 -6.87799915 14.03787463 -9 19 C-9.66 19 -10.32 19 -11 19 C-11.33 20.65 -11.66 22.3 -12 24 C-13.04833194 21.3230095 -13.09465303 20.24235757 -12.03125 17.51953125 C-8.48341191 11.24746033 -4.61893861 5.53452703 0 0 Z " fill="#49339B" transform="translate(239,160)"/>
<path d="M0 0 C1.39195915 4.17587745 -0.17676781 6.13474776 -2 10 C-2.66 10 -3.32 10 -4 10 C-4.3403125 10.9590625 -4.3403125 10.9590625 -4.6875 11.9375 C-5.83765898 14.62120429 -7.0721541 17.17147025 -8.4375 19.75 C-8.84871094 20.52859375 -9.25992188 21.3071875 -9.68359375 22.109375 C-11 24 -11 24 -14 25 C-12.68071914 21.48283007 -11.12651609 18.34691482 -9.1796875 15.13671875 C-8.37724609 13.80737305 -8.37724609 13.80737305 -7.55859375 12.45117188 C-6.72521484 11.0831543 -6.72521484 11.0831543 -5.875 9.6875 C-5.31167969 8.75615234 -4.74835938 7.82480469 -4.16796875 6.86523438 C-2.7819554 4.57478858 -1.39254372 2.28647924 0 0 Z " fill="#4A3F9F" transform="translate(155,307)"/>
<path d="M0 0 C0.66 0.33 1.32 0.66 2 1 C0.05073686 4.65075367 -1.9109037 8.29470813 -3.875 11.9375 C-4.70837891 13.49887695 -4.70837891 13.49887695 -5.55859375 15.09179688 C-6.09355469 16.08115234 -6.62851563 17.07050781 -7.1796875 18.08984375 C-7.67194824 19.00628662 -8.16420898 19.92272949 -8.67138672 20.86694336 C-10 23 -10 23 -12 24 C-11.26733512 19.91358743 -9.31342025 16.40525846 -7.4375 12.75 C-7.10814453 12.1003125 -6.77878906 11.450625 -6.43945312 10.78125 C-5.62992435 9.18565706 -4.81544958 7.59257517 -4 6 C-3.34 6 -2.68 6 -2 6 C-1.855625 5.195625 -1.71125 4.39125 -1.5625 3.5625 C-1 1 -1 1 0 0 Z " fill="#4D37A6" transform="translate(218,288)"/>
<path d="M0 0 C1.32 0 2.64 0 4 0 C4 0.66 4 1.32 4 2 C3.01 2 2.02 2 1 2 C0.773125 2.598125 0.54625 3.19625 0.3125 3.8125 C-1.33811133 6.56351888 -3.1972081 7.52484637 -6 9 C-7.32 7.68 -8.64 6.36 -10 5 C-9.67 4.01 -9.34 3.02 -9 2 C-6.61435923 2.57584432 -4.33317216 3.22227595 -2 4 C-1.34 2.68 -0.68 1.36 0 0 Z " fill="#5245D9" transform="translate(284,176)"/>
<path d="M0 0 C-8.62259779 5.74839853 -18.72498977 8.36696465 -29 8 C-29 7.67 -29 7.34 -29 7 C-28.17592651 6.78851318 -28.17592651 6.78851318 -27.33520508 6.57275391 C-24.82674079 5.92692683 -22.31962371 5.27601097 -19.8125 4.625 C-18.94818359 4.40328125 -18.08386719 4.1815625 -17.19335938 3.953125 C-1.65692572 -0.09468147 -1.65692572 -0.09468147 0 0 Z " fill="#3F308B" transform="translate(369,290)"/>
<path d="M0 0 C3.18859407 1.34099751 4.64442747 2.50318178 6.32421875 5.51953125 C6.71287109 6.21240234 7.10152344 6.90527344 7.50195312 7.61914062 C7.89318359 8.34294922 8.28441406 9.06675781 8.6875 9.8125 C9.09033203 10.52470703 9.49316406 11.23691406 9.90820312 11.97070312 C11.92201121 15.61714623 13.51280089 18.79687547 14 23 C11.55653472 20.75324868 9.9528106 18.45822599 8.30078125 15.5859375 C7.81416016 14.74289063 7.32753906 13.89984375 6.82617188 13.03125 C6.32666016 12.1546875 5.82714844 11.278125 5.3125 10.375 C4.80138672 9.49070313 4.29027344 8.60640625 3.76367188 7.6953125 C0 1.14280499 0 1.14280499 0 0 Z " fill="#3C3286" transform="translate(167,188)"/>
<path d="M0 0 C2.375 0.3125 2.375 0.3125 5 1 C5.66 1.99 6.32 2.98 7 4 C9.56282742 4.72965366 9.56282742 4.72965366 12 5 C12 5.66 12 6.32 12 7 C12.78375 7.144375 13.5675 7.28875 14.375 7.4375 C17 8 17 8 19 9 C19 9.66 19 10.32 19 11 C12.65717341 9.15563199 6.37603725 6.93602727 1 3 C0.67 2.01 0.34 1.02 0 0 Z " fill="#5144D2" transform="translate(263,324)"/>
<path d="M0 0 C3.34150315 1.40011147 4.98002572 2.93176968 7.0625 5.875 C7.54847656 6.55304688 8.03445312 7.23109375 8.53515625 7.9296875 C9.26025391 8.95449219 9.26025391 8.95449219 10 10 C10.57621094 10.68320312 11.15242187 11.36640625 11.74609375 12.0703125 C12.15988281 12.70710938 12.57367188 13.34390625 13 14 C12.67 14.99 12.34 15.98 12 17 C10.37076065 14.91986415 8.7465453 12.83612026 7.125 10.75 C6.66480469 10.16347656 6.20460937 9.57695312 5.73046875 8.97265625 C3.49615028 6.09070923 1.4532826 3.37428833 0 0 Z " fill="#372F84" transform="translate(230,294)"/>
<path d="M0 0 C-5.10899384 3.40599589 -9.18585768 4.28144996 -15.3125 4.625 C-16.56675781 4.69976562 -17.82101562 4.77453125 -19.11328125 4.8515625 C-20.54220703 4.92503906 -20.54220703 4.92503906 -22 5 C-22 4.34 -22 3.68 -22 3 C-22.66 2.67 -23.32 2.34 -24 2 C-22.67935547 2.03480469 -22.67935547 2.03480469 -21.33203125 2.0703125 C-19.58986328 2.09738281 -19.58986328 2.09738281 -17.8125 2.125 C-16.66394531 2.14820313 -15.51539063 2.17140625 -14.33203125 2.1953125 C-9.17293111 1.89290335 -5.31918519 -0.24740396 0 0 Z " fill="#5043D3" transform="translate(368,336)"/>
<path d="M0 0 C1.94759711 2.92139566 3.17431801 5.63354587 4.5 8.875 C4.9228125 9.90367187 5.345625 10.93234375 5.78125 11.9921875 C6.86164183 14.65853912 7.93494113 17.32749116 9 20 C7.35 19.67 5.7 19.34 4 19 C3.896875 18.01 3.79375 17.02 3.6875 16 C3.18757859 12.3755698 2.04947963 9.25021292 0.62109375 5.89453125 C0 4 0 4 0 0 Z " fill="#5644D5" transform="translate(263,253)"/>
<path d="M0 0 C1.16080078 0.00902344 2.32160156 0.01804688 3.51757812 0.02734375 C6.36610108 0.05078838 9.21419078 0.08360478 12.0625 0.125 C12.0625 0.455 12.0625 0.785 12.0625 1.125 C4.4725 1.125 -3.1175 1.125 -10.9375 1.125 C-10.9375 1.785 -10.9375 2.445 -10.9375 3.125 C-15.3925 3.62 -15.3925 3.62 -19.9375 4.125 C-19.9375 3.465 -19.9375 2.805 -19.9375 2.125 C-13.32412851 -0.31302084 -6.98501938 -0.10324645 0 0 Z " fill="#5947D2" transform="translate(323.9375,164.875)"/>
<path d="M0 0 C0.99 0.33 1.98 0.66 3 1 C3 2.98 3 4.96 3 7 C3.66 7.33 4.32 7.66 5 8 C5 9.98 5 11.96 5 14 C4.01 14.495 4.01 14.495 3 15 C2.35309078 13.3962669 1.70751236 11.79199694 1.0625 10.1875 C0.70285156 9.29417969 0.34320313 8.40085938 -0.02734375 7.48046875 C-0.73613486 5.6729091 -1.3860247 3.84192591 -2 2 C-1.34 2 -0.68 2 0 2 C0 1.34 0 0.68 0 0 Z " fill="#5144D8" transform="translate(194,225)"/>
<path d="M0 0 C0.66 0.33 1.32 0.66 2 1 C1.67 1.66 1.34 2.32 1 3 C0.34 3 -0.32 3 -1 3 C-1.66 4.98 -2.32 6.96 -3 9 C-3.66 9 -4.32 9 -5 9 C-5.66 10.98 -6.32 12.96 -7 15 C-7.66 15 -8.32 15 -9 15 C-9.33 15.99 -9.66 16.98 -10 18 C-10.33 17.34 -10.66 16.68 -11 16 C-9.63671875 13.1796875 -9.63671875 13.1796875 -7.6875 9.875 C-7.05199219 8.77929688 -6.41648438 7.68359375 -5.76171875 6.5546875 C-5.18035156 5.71164063 -4.59898437 4.86859375 -4 4 C-3.34 4 -2.68 4 -2 4 C-2 3.34 -2 2.68 -2 2 C-1.34 2 -0.68 2 0 2 C0 1.34 0 0.68 0 0 Z " fill="#5143BE" transform="translate(246,152)"/>
<path d="M0 0 C0.99 0.33 1.98 0.66 3 1 C1.71034824 2.37562854 0.37310707 3.70766393 -1 5 C-1.66 5 -2.32 5 -3 5 C-3.20625 5.53625 -3.4125 6.0725 -3.625 6.625 C-5.57996944 10.0017654 -8.18223695 12.30474839 -11 15 C-11.66 14.67 -12.32 14.34 -13 14 C-9.25588846 9.55454192 -5.63630256 5.54540784 -1 2 C-0.67 1.34 -0.34 0.68 0 0 Z " fill="#44389C" transform="translate(285,178)"/>
<path d="M0 0 C-5.75263111 3.83508741 -12.31800851 3.11884965 -19 3 C-15.79303059 0.8620204 -13.82077335 0.430362 -10.0625 -0.1875 C-8.50208984 -0.45626953 -8.50208984 -0.45626953 -6.91015625 -0.73046875 C-4.22831359 -0.97885418 -2.52075332 -0.85644872 0 0 Z " fill="#5645D0" transform="translate(356,297)"/>
<path d="M0 0 C1.23086034 3.69258103 0.66728638 4.58206293 -1 8 C-2.5 10.3125 -2.5 10.3125 -4 12 C-4.66 12 -5.32 12 -6 12 C-6.33 12.99 -6.66 13.98 -7 15 C-7.33 14.34 -7.66 13.68 -8 13 C-7.0625 10.875 -7.0625 10.875 -6 9 C-5.34 9 -4.68 9 -4 9 C-3.8453125 8.1646875 -3.8453125 8.1646875 -3.6875 7.3125 C-2.86866423 4.55823422 -1.54146219 2.41272343 0 0 Z " fill="#5445D2" transform="translate(148,322)"/>
<path d="M0 0 C1.10693359 3.75878906 1.10693359 3.75878906 0.14453125 5.9296875 C-0.29503906 6.57164062 -0.73460937 7.21359375 -1.1875 7.875 C-1.64898437 8.56335938 -2.11046875 9.25171875 -2.5859375 9.9609375 C-3.05257812 10.63382813 -3.51921875 11.30671875 -4 12 C-4.77223906 13.16573667 -5.54324962 14.33228899 -6.3125 15.5 C-7.1478125 16.7375 -7.1478125 16.7375 -8 18 C-8.33 17.34 -8.66 16.68 -9 16 C-8.28735352 14.30419922 -8.28735352 14.30419922 -7.12890625 12.3046875 C-6.71962891 11.58925781 -6.31035156 10.87382812 -5.88867188 10.13671875 C-5.45103516 9.39035156 -5.01339844 8.64398438 -4.5625 7.875 C-4.12873047 7.12089844 -3.69496094 6.36679688 -3.24804688 5.58984375 C-2.17251034 3.72242866 -1.08715861 1.86067303 0 0 Z " fill="#463DA2" transform="translate(194,240)"/>
<path d="M0 0 C0.99 0.33 1.98 0.66 3 1 C-1.45168397 5.30284347 -4.89580099 7.7542451 -11 9 C-11 8.34 -11 7.68 -11 7 C-10.113125 6.5875 -9.22625 6.175 -8.3125 5.75 C-4.96223835 4.12794216 -4.96223835 4.12794216 -2.3125 1.75 C-1.1678125 0.88375 -1.1678125 0.88375 0 0 Z " fill="#4E42D6" transform="translate(259,143)"/>
<path d="M0 0 C0.33 0.66 0.66 1.32 1 2 C0.00390625 4.3828125 0.00390625 4.3828125 -1.4375 7.125 C-1.91058594 8.03507812 -2.38367188 8.94515625 -2.87109375 9.8828125 C-3.24363281 10.58148438 -3.61617187 11.28015625 -4 12 C-4.66 12 -5.32 12 -6 12 C-6.33 12.99 -6.66 13.98 -7 15 C-7.33 14.34 -7.66 13.68 -8 13 C-6.75506252 10.71025684 -5.47358472 8.55809966 -4.0625 6.375 C-3.67642578 5.76398438 -3.29035156 5.15296875 -2.89257812 4.5234375 C-1.93553674 3.0110758 -0.96867189 1.50493883 0 0 Z " fill="#483E9F" transform="translate(184,258)"/>
<path d="M0 0 C0.33 3.3 0.66 6.6 1 10 C-2.08089673 7.22719294 -3.68775452 4.93673644 -5 1 C-1.125 0 -1.125 0 0 0 Z " fill="#5047D2" transform="translate(164,170)"/>
<path d="M0 0 C0.99 0.33 1.98 0.66 3 1 C3 1.66 3 2.32 3 3 C4.32 3.66 5.64 4.32 7 5 C7 6.65 7 8.3 7 10 C3.60582235 6.87378374 1.3937282 4.43458973 0 0 Z " fill="#5443D7" transform="translate(142,141)"/>
<path d="M0 0 C0.33 0.66 0.66 1.32 1 2 C0.67 2.66 0.34 3.32 0 4 C-0.66 4 -1.32 4 -2 4 C-2.33 6.31 -2.66 8.62 -3 11 C-3.99 11.33 -4.98 11.66 -6 12 C-5.01 9.03 -4.02 6.06 -3 3 C-2.34 3 -1.68 3 -1 3 C-0.67 2.01 -0.34 1.02 0 0 Z " fill="#5445DB" transform="translate(139,338)"/>
<path d="M0 0 C0.66 0 1.32 0 2 0 C0.43358249 4.30764815 -1.68336156 8.06171464 -4 12 C-5 9 -5 9 -4.00390625 6.73828125 C-3.52824219 5.93777344 -3.05257812 5.13726562 -2.5625 4.3125 C-2.08941406 3.50425781 -1.61632812 2.69601562 -1.12890625 1.86328125 C-0.75636719 1.24839844 -0.38382813 0.63351562 0 0 Z " fill="#493D98" transform="translate(211,300)"/>
<path d="M0 0 C1 3 1 3 0.109375 5.19140625 C-0.33921875 5.97386719 -0.7878125 6.75632812 -1.25 7.5625 C-1.90742188 8.74005859 -1.90742188 8.74005859 -2.578125 9.94140625 C-4 12 -4 12 -7 14 C-5.23570801 9.02790438 -2.6060834 4.56561939 0 0 Z " fill="#4E3C9D" transform="translate(163,293)"/>
<path d="M0 0 C0.66 0.33 1.32 0.66 2 1 C1.39301257 5.12751449 -0.03810791 8.3321148 -2 12 C-3.40907283 9.18185434 -2.50872691 7.82722796 -1.5625 4.875 C-1.27503906 3.96492187 -0.98757813 3.05484375 -0.69140625 2.1171875 C-0.46324219 1.41851562 -0.23507812 0.71984375 0 0 Z " fill="#5340D6" transform="translate(268,194)"/>
<path d="M0 0 C0.66 0.33 1.32 0.66 2 1 C1.34 2.98 0.68 4.96 0 7 C-0.66 7 -1.32 7 -2 7 C-2.33 8.65 -2.66 10.3 -3 12 C-3.88336837 9.5332355 -4.1312406 8.36140628 -3.22265625 5.859375 C-2.83980469 5.16328125 -2.45695313 4.4671875 -2.0625 3.75 C-1.68222656 3.04359375 -1.30195313 2.3371875 -0.91015625 1.609375 C-0.60980469 1.07828125 -0.30945313 0.5471875 0 0 Z " fill="#4136A5" transform="translate(230,172)"/>
<path d="M0 0 C0 0.33 0 0.66 0 1 C-1.22976563 1.19916016 -1.22976563 1.19916016 -2.484375 1.40234375 C-4.10085938 1.66724609 -4.10085938 1.66724609 -5.75 1.9375 C-7.35101563 2.19853516 -7.35101563 2.19853516 -8.984375 2.46484375 C-11.36347593 2.88704171 -13.66915211 3.37202884 -16 4 C-15.67 3.01 -15.34 2.02 -15 1 C-9.92928099 0.28832014 -5.11791642 -0.10662326 0 0 Z " fill="#4E40BB" transform="translate(312,168)"/>
<path d="M0 0 C0 0.99 0 1.98 0 3 C-1.32 3 -2.64 3 -4 3 C-4.33 3.66 -4.66 4.32 -5 5 C-6.65 5 -8.3 5 -10 5 C-8.28489314 1.56978628 -3.75681361 0 0 0 Z " fill="#5B46DD" transform="translate(368,291)"/>
<path d="M0 0 C1.32 0.33 2.64 0.66 4 1 C2.18705073 3.7194239 0.33524782 5.74259377 -2 8 C-2.20086443 4.28400809 -2.1519437 3.22791555 0 0 Z " fill="#3F2FA1" transform="translate(222,280)"/>
<path d="M0 0 C1.33333333 0.66666667 2.66666667 1.33333333 4 2 C5.0828125 2.433125 5.0828125 2.433125 6.1875 2.875 C8 4 8 4 8.75 6.125 C8.87375 7.053125 8.87375 7.053125 9 8 C8.34 8 7.68 8 7 8 C7 7.34 7 6.68 7 6 C6.401875 5.7525 5.80375 5.505 5.1875 5.25 C2.71352479 3.83629988 1.56629745 2.34944617 0 0 Z " fill="#5448D0" transform="translate(247,312)"/>
<path d="M0 0 C3.93846154 3.32307692 3.93846154 3.32307692 4.25 6.75 C4.1675 7.4925 4.085 8.235 4 9 C1.47740939 7.02579865 1.0070192 6.03254358 0.3125 2.8125 C0.209375 1.884375 0.10625 0.95625 0 0 Z " fill="#5344D9" transform="translate(188,217)"/>
<path d="M0 0 C0.8125 1.6875 0.8125 1.6875 1 4 C-1.4375 6.75 -1.4375 6.75 -4 9 C-3.67 7.35 -3.34 5.7 -3 4 C-2.34 4 -1.68 4 -1 4 C-0.67 2.68 -0.34 1.36 0 0 Z " fill="#5648CC" transform="translate(167,289)"/>
<path d="M0 0 C2.79872437 2.52788007 4.45773019 4.20411134 5 8 C2 7 2 7 0.8125 5.125 C0 3 0 3 0 0 Z " fill="#4539A6" transform="translate(146,149)"/>
</svg>
